<svg width="50" height="64" viewBox="0 0 50 64" fill="none" xmlns="http://www.w3.org/2000/svg">
<mask id="path-1-outside-1_2_2037" maskUnits="userSpaceOnUse" x="2.92944" y="2.84882" width="46" height="61" fill="black">
<rect fill="white" x="2.92944" y="2.84882" width="46" height="61"/>
<path d="M25.7974 60.9397L8.87682 47.82C6.40217 45.9012 4.92944 42.7737 4.92944 39.4372L4.92945 11.1705L25.7974 5.84882L46.0657 11.1705L46.0657 39.4372C46.0657 42.78 44.612 45.9198 42.157 47.8797L25.7974 60.9397Z"/>
</mask>
<path d="M25.7974 60.9397L8.87682 47.82C6.40217 45.9012 4.92944 42.7737 4.92944 39.4372L4.92945 11.1705L25.7974 5.84882L46.0657 11.1705L46.0657 39.4372C46.0657 42.78 44.612 45.9198 42.157 47.8797L25.7974 60.9397Z" fill="#455D4C"/>
<path d="M8.87682 47.82L7.65131 49.4005L7.65131 49.4005L8.87682 47.82ZM25.7974 60.9397L24.5719 62.5202L25.8154 63.4844L27.0451 62.5027L25.7974 60.9397ZM4.92945 11.1705L4.43523 9.23256L2.92945 9.61656L2.92945 11.1705L4.92945 11.1705ZM4.92944 39.4372L6.92944 39.4372L6.92944 39.4372L4.92944 39.4372ZM25.7974 5.84882L26.3053 3.91438L25.8047 3.78294L25.3031 3.91084L25.7974 5.84882ZM46.0657 11.1705L48.0657 11.1705L48.0657 9.62787L46.5736 9.2361L46.0657 11.1705ZM46.0657 39.4372L44.0657 39.4372L44.0657 39.4372L46.0657 39.4372ZM42.157 47.8797L43.4047 49.4427L43.4047 49.4427L42.157 47.8797ZM7.65131 49.4005L24.5719 62.5202L27.0229 59.3592L10.1023 46.2395L7.65131 49.4005ZM2.92945 11.1705L2.92944 39.4372L6.92944 39.4372L6.92945 11.1705L2.92945 11.1705ZM25.3031 3.91084L4.43523 9.23256L5.42367 13.1085L26.2916 7.78679L25.3031 3.91084ZM46.5736 9.2361L26.3053 3.91438L25.2894 7.78325L45.5578 13.105L46.5736 9.2361ZM48.0657 39.4372L48.0657 11.1705L44.0657 11.1705L44.0657 39.4372L48.0657 39.4372ZM27.0451 62.5027L43.4047 49.4427L40.9092 46.3167L24.5496 59.3767L27.0451 62.5027ZM43.4047 49.4427C46.3692 47.0762 48.0657 43.3433 48.0657 39.4372L44.0657 39.4372C44.0657 42.2166 42.8548 44.7635 40.9092 46.3167L43.4047 49.4427ZM10.1023 46.2395C8.15214 44.7273 6.92944 42.2023 6.92944 39.4372L2.92944 39.4372C2.92944 43.3451 4.65221 47.0751 7.65131 49.4005L10.1023 46.2395Z" fill="#050F11" mask="url(#path-1-outside-1_2_2037)"/>
<mask id="path-3-inside-2_2_2037" fill="white">
<path d="M25.7973 56.0303L8.87673 42.9106C6.40208 40.9919 4.92935 37.8643 4.92935 34.5279L4.92935 6.26117L25.7973 0.939453L46.0656 6.26117V13.3278V20.3945V27.4612L46.0656 34.5279C46.0656 37.8706 44.6119 41.0105 42.1569 42.9704L25.7973 56.0303Z"/>
</mask>
<path d="M25.7973 56.0303L8.87673 42.9106C6.40208 40.9919 4.92935 37.8643 4.92935 34.5279L4.92935 6.26117L25.7973 0.939453L46.0656 6.26117V13.3278V20.3945V27.4612L46.0656 34.5279C46.0656 37.8706 44.6119 41.0105 42.1569 42.9704L25.7973 56.0303Z" fill="#050F11"/>
<path d="M8.87673 42.9106L8.26397 43.7009L8.26397 43.7009L8.87673 42.9106ZM25.7973 56.0303L25.1845 56.8206L25.8063 57.3027L26.4212 56.8119L25.7973 56.0303ZM4.92935 6.26117L4.68224 5.29218L3.92935 5.48418L3.92935 6.26117L4.92935 6.26117ZM4.92935 34.5279L5.92935 34.5279L5.92935 34.5279L4.92935 34.5279ZM25.7973 0.939453L26.0512 -0.0277629L25.8009 -0.0934833L25.5502 -0.0295342L25.7973 0.939453ZM46.0656 6.26117H47.0656V5.48984L46.3196 5.29395L46.0656 6.26117ZM46.0656 34.5279L47.0656 34.5279L47.0656 34.5279L46.0656 34.5279ZM42.1569 42.9704L42.7807 43.7519L42.7807 43.7519L42.1569 42.9704ZM46.0656 27.4612L45.0656 27.4612L45.0656 27.4612L46.0656 27.4612ZM8.26397 43.7009L25.1845 56.8206L26.41 55.2401L9.48948 42.1204L8.26397 43.7009ZM3.92935 6.26117L3.92935 34.5279L5.92935 34.5279L5.92935 6.26117L3.92935 6.26117ZM25.5502 -0.0295342L4.68224 5.29218L5.17647 7.23016L26.0444 1.90844L25.5502 -0.0295342ZM46.3196 5.29395L26.0512 -0.0277629L25.5433 1.90667L45.8117 7.22839L46.3196 5.29395ZM26.4212 56.8119L42.7807 43.7519L41.533 42.1888L25.1734 55.2488L26.4212 56.8119ZM42.7807 43.7519C45.4905 41.5887 47.0656 38.1523 47.0656 34.5279L45.0656 34.5279C45.0656 37.5889 43.7333 40.4323 41.533 42.1888L42.7807 43.7519ZM9.48948 42.1204C7.27706 40.4049 5.92935 37.5786 5.92935 34.5279L3.92935 34.5278C3.92935 38.15 5.5271 41.5788 8.26397 43.7009L9.48948 42.1204ZM47.0656 20.3945V13.3278H45.0656V20.3945H47.0656ZM47.0656 13.3278V6.26117H45.0656V13.3278H47.0656ZM47.0656 34.5279L47.0656 27.4612L45.0656 27.4612L45.0656 34.5279L47.0656 34.5279ZM47.0656 27.4612V20.3945H45.0656V27.4612H47.0656Z" fill="#69FF93" mask="url(#path-3-inside-2_2_2037)"/>
<rect x="23.4179" y="9.47107" width="3" height="3" transform="rotate(-45 23.4179 9.47107)" fill="#69FF93"/>
<rect x="39.4055" y="26.2035" width="3" height="3" transform="rotate(-45 39.4055 26.2035)" fill="#69FF93"/>
<rect x="36.6939" y="11.8636" width="3" height="3" fill="#69FF93"/>
<rect x="10.8626" y="11.8636" width="3" height="3" fill="#69FF93"/>
<rect x="36.6939" y="36.8597" width="3" height="3" fill="#69FF93"/>
<rect x="10.8626" y="36.8597" width="3" height="3" fill="#69FF93"/>
<rect x="7.41678" y="26.2035" width="3" height="3" transform="rotate(-45 7.41678 26.2035)" fill="#69FF93"/>
<rect x="23.4179" y="43.1859" width="3" height="3" transform="rotate(-45 23.4179 43.1859)" fill="#69FF93"/>
<mask id="path-13-outside-3_2_2037" maskUnits="userSpaceOnUse" x="11.8219" y="12.3105" width="28.6467" height="28.6467" fill="black">
<rect fill="white" x="11.8219" y="12.3105" width="28.6467" height="28.6467"/>
<path d="M38.1905 25.8819C38.3522 32.8 32.8751 38.5394 25.957 38.7011C19.0389 38.8628 13.2995 33.3857 13.1378 26.4676C12.9761 19.5495 18.4532 13.8101 25.3713 13.6484C32.2894 13.4867 38.0288 18.9638 38.1905 25.8819Z"/>
</mask>
<path d="M38.1905 25.8819C38.3522 32.8 32.8751 38.5394 25.957 38.7011C19.0389 38.8628 13.2995 33.3857 13.1378 26.4676C12.9761 19.5495 18.4532 13.8101 25.3713 13.6484C32.2894 13.4867 38.0288 18.9638 38.1905 25.8819Z" fill="#050F11"/>
<path d="M38.6904 25.8702C38.6823 25.5262 38.661 25.1855 38.6269 24.8487L37.632 24.9494C37.6635 25.2606 37.6832 25.5754 37.6906 25.8936L38.6904 25.8702ZM38.2621 22.8368C38.0862 22.1707 37.859 21.526 37.5852 20.9069L36.6706 21.3115C36.9233 21.8827 37.1329 22.4776 37.2952 23.0921L38.2621 22.8368ZM36.613 19.1077C36.2415 18.5332 35.8261 17.9901 35.3717 17.4831L34.6269 18.1505C35.0467 18.6188 35.4303 19.1203 35.7734 19.6508L36.613 19.1077ZM33.8927 16.0717C33.365 15.6415 32.8031 15.2519 32.2118 14.9076L31.7086 15.7717C32.2545 16.0896 32.7734 16.4494 33.2608 16.8468L33.8927 16.0717ZM30.3691 14.0206C29.738 13.776 29.0833 13.5792 28.4098 13.4346L28.1999 14.4123C28.8213 14.5457 29.4254 14.7273 30.0078 14.953L30.3691 14.0206ZM26.383 13.1642C26.045 13.1459 25.7036 13.1405 25.3596 13.1485L25.383 14.1483C25.7012 14.1408 26.0166 14.1458 26.3289 14.1627L26.383 13.1642ZM25.3596 13.1485C25.0156 13.1566 24.6749 13.1779 24.3381 13.212L24.4388 14.2069C24.75 14.1754 25.0649 14.1557 25.383 14.1483L25.3596 13.1485ZM22.3262 13.5768C21.6601 13.7527 21.0154 13.9799 20.3963 14.2537L20.8009 15.1683C21.3721 14.9156 21.967 14.706 22.5815 14.5437L22.3262 13.5768ZM18.5971 15.2258C18.0226 15.5974 17.4795 16.0128 16.9725 16.4672L17.6399 17.2119C18.1082 16.7922 18.6097 16.4086 19.1402 16.0655L18.5971 15.2258ZM15.5611 17.9462C15.1309 18.4739 14.7413 19.0358 14.397 19.6271L15.2611 20.1303C15.579 19.5844 15.9388 19.0655 16.3362 18.578L15.5611 17.9462ZM13.51 21.4697C13.2654 22.1009 13.0686 22.7556 12.924 23.4291L13.9017 23.639C14.0351 23.0175 14.2167 22.4135 14.4424 21.8311L13.51 21.4697ZM12.6536 25.4558C12.6353 25.7939 12.6299 26.1352 12.6379 26.4793L13.6377 26.4559C13.6302 26.1377 13.6352 25.8223 13.6521 25.51L12.6536 25.4558ZM12.6379 26.4793C12.646 26.8233 12.6673 27.164 12.7014 27.5008L13.6963 27.4001C13.6648 27.0889 13.6451 26.774 13.6377 26.4559L12.6379 26.4793ZM13.0662 29.5127C13.2421 30.1787 13.4693 30.8235 13.7431 31.4426L14.6577 31.038C14.405 30.4668 14.1954 29.8719 14.0331 29.2573L13.0662 29.5127ZM14.7152 33.2418C15.0868 33.8163 15.5022 34.3594 15.9566 34.8664L16.7013 34.199C16.2816 33.7307 15.898 33.2291 15.5549 32.6987L14.7152 33.2418ZM17.4356 36.2778C17.9633 36.708 18.5252 37.0976 19.1165 37.4419L19.6197 36.5778C19.0738 36.2599 18.5549 35.9001 18.0674 35.5027L17.4356 36.2778ZM20.9591 38.3289C21.5903 38.5735 22.245 38.7703 22.9185 38.9149L23.1284 37.9372C22.507 37.8037 21.9029 37.6222 21.3205 37.3965L20.9591 38.3289ZM24.9452 39.1853C25.2833 39.2036 25.6246 39.209 25.9687 39.2009L25.9453 38.2012C25.6271 38.2087 25.3117 38.2037 24.9994 38.1868L24.9452 39.1853ZM25.9687 39.2009C26.3127 39.1929 26.6534 39.1716 26.9902 39.1375L26.8895 38.1426C26.5783 38.1741 26.2634 38.1938 25.9453 38.2012L25.9687 39.2009ZM29.0021 38.7727C29.6681 38.5968 30.3129 38.3696 30.932 38.0957L30.5274 37.1812C29.9562 37.4339 29.3613 37.6435 28.7468 37.8058L29.0021 38.7727ZM32.7312 37.1236C33.3057 36.7521 33.8488 36.3366 34.3558 35.8823L33.6884 35.1375C33.2201 35.5573 32.7185 35.9409 32.1881 36.284L32.7312 37.1236ZM35.7672 34.4033C36.1974 33.8756 36.587 33.3137 36.9313 32.7224L36.0672 32.2192C35.7493 32.7651 35.3895 33.284 34.9921 33.7714L35.7672 34.4033ZM37.8183 30.8797C38.0629 30.2486 38.2597 29.5939 38.4043 28.9204L37.4266 28.7105C37.2931 29.3319 37.1116 29.936 36.8859 30.5184L37.8183 30.8797ZM38.6747 26.8936C38.693 26.5555 38.6984 26.2142 38.6904 25.8702L37.6906 25.8936C37.6981 26.2117 37.6931 26.5272 37.6762 26.8395L38.6747 26.8936ZM39.1902 25.8585C39.1819 25.5016 39.1598 25.148 39.1243 24.7983L37.1345 24.9998C37.1647 25.2981 37.1836 25.6001 37.1908 25.9053L39.1902 25.8585ZM38.7455 22.7091C38.5628 22.0173 38.3268 21.3476 38.0424 20.7047L36.2134 21.5137C36.4555 22.061 36.6563 22.631 36.8118 23.2198L38.7455 22.7091ZM37.0329 18.8362C36.6471 18.2396 36.2157 17.6758 35.744 17.1494L34.2546 18.4841C34.657 18.9331 35.0247 19.4139 35.3535 19.9223L37.0329 18.8362ZM34.2086 15.6841C33.6608 15.2375 33.0774 14.833 32.4634 14.4755L31.457 16.2038C31.9802 16.5085 32.4776 16.8533 32.9449 17.2343L34.2086 15.6841ZM30.5498 13.5544C29.8943 13.3003 29.2143 13.0959 28.5147 12.9457L28.0949 14.9012C28.6904 15.029 29.2691 15.203 29.8271 15.4192L30.5498 13.5544ZM26.4101 12.6649C26.0591 12.6459 25.7049 12.6403 25.3479 12.6487L25.3947 14.6481C25.6999 14.641 26.0024 14.6458 26.3019 14.662L26.4101 12.6649ZM25.3479 12.6487C24.991 12.657 24.6374 12.6791 24.2877 12.7145L24.4892 14.7044C24.7875 14.6742 25.0895 14.6553 25.3947 14.6481L25.3479 12.6487ZM22.1985 13.0934C21.5067 13.2761 20.837 13.512 20.1941 13.7965L21.0031 15.6255C21.5505 15.3834 22.1204 15.1826 22.7092 15.0271L22.1985 13.0934ZM18.3256 14.806C17.729 15.1918 17.1652 15.6231 16.6388 16.0949L17.9736 17.5843C18.4225 17.1819 18.9033 16.8142 19.4117 16.4854L18.3256 14.806ZM15.1735 17.6303C14.7269 18.1781 14.3224 18.7615 13.9649 19.3755L15.6932 20.3819C15.9979 19.8587 16.3428 19.3613 16.7237 18.894L15.1735 17.6303ZM13.0438 21.2891C12.7897 21.9446 12.5853 22.6246 12.4351 23.3242L14.3906 23.744C14.5184 23.1485 14.6924 22.5698 14.9086 22.0118L13.0438 21.2891ZM12.1543 25.4288C12.1353 25.7798 12.1297 26.134 12.1381 26.4909L14.1375 26.4442C14.1304 26.139 14.1352 25.8365 14.1514 25.537L12.1543 25.4288ZM12.1381 26.4909C12.1464 26.8479 12.1685 27.2015 12.2039 27.5512L14.1938 27.3497C14.1636 27.0514 14.1447 26.7494 14.1375 26.4442L12.1381 26.4909ZM12.5828 29.6404C12.7655 30.3322 13.0015 31.0018 13.2859 31.6448L15.1149 30.8357C14.8728 30.2884 14.672 29.7185 14.5165 29.1297L12.5828 29.6404ZM14.2954 33.5133C14.6812 34.1099 15.1125 34.6737 15.5843 35.2001L17.0737 33.8653C16.6713 33.4163 16.3036 32.9356 15.9748 32.4271L14.2954 33.5133ZM17.1197 36.6653C17.6675 37.112 18.2509 37.5165 18.8649 37.874L19.8713 36.1457C19.3481 35.841 18.8507 35.4961 18.3834 35.1152L17.1197 36.6653ZM20.7785 38.7951C21.434 39.0492 22.114 39.2536 22.8136 39.4037L23.2334 37.4483C22.6379 37.3205 22.0592 37.1465 21.5012 36.9302L20.7785 38.7951ZM24.9182 39.6846C25.2692 39.7036 25.6234 39.7092 25.9803 39.7008L25.9336 37.7014C25.6284 37.7085 25.3259 37.7037 25.0264 37.6875L24.9182 39.6846ZM25.9803 39.7008C26.3373 39.6925 26.6909 39.6703 27.0406 39.6349L26.8391 37.6451C26.5408 37.6753 26.2388 37.6942 25.9336 37.7014L25.9803 39.7008ZM29.1298 39.2561C29.8216 39.0734 30.4912 38.8374 31.1342 38.553L30.3252 36.724C29.7778 36.9661 29.2079 37.1669 28.6191 37.3224L29.1298 39.2561ZM33.0027 37.5435C33.5993 37.1577 34.1631 36.7263 34.6895 36.2546L33.3547 34.7652C32.9057 35.1676 32.425 35.5353 31.9166 35.8641L33.0027 37.5435ZM36.1548 34.7192C36.6014 34.1714 37.0059 33.588 37.3634 32.974L35.6351 31.9675C35.3304 32.4908 34.9855 32.9882 34.6046 33.4555L36.1548 34.7192ZM38.2845 31.0604C38.5386 30.4049 38.743 29.7249 38.8931 29.0253L36.9377 28.6055C36.8099 29.2009 36.6359 29.7797 36.4197 30.3377L38.2845 31.0604ZM39.174 26.9207C39.193 26.5697 39.1986 26.2155 39.1902 25.8585L37.1908 25.9053C37.1979 26.2105 37.1931 26.513 37.1769 26.8124L39.174 26.9207Z" fill="#69FF93" mask="url(#path-13-outside-3_2_2037)"/>
<mask id="path-15-outside-4_2_2037" maskUnits="userSpaceOnUse" x="14.6642" y="15.1757" width="22" height="22" fill="black">
<rect fill="white" x="14.6642" y="15.1757" width="22" height="22"/>
<path d="M35.6642 26.1757C35.6642 31.6986 31.187 36.1757 25.6642 36.1757C20.1413 36.1757 15.6642 31.6986 15.6642 26.1757C15.6642 20.6529 20.1413 16.1757 25.6642 16.1757C31.187 16.1757 35.6642 20.6529 35.6642 26.1757Z"/>
</mask>
<path d="M35.6642 26.1757C35.6642 31.6986 31.187 36.1757 25.6642 36.1757C20.1413 36.1757 15.6642 31.6986 15.6642 26.1757C15.6642 20.6529 20.1413 16.1757 25.6642 16.1757C31.187 16.1757 35.6642 20.6529 35.6642 26.1757Z" fill="#050F11"/>
<path d="M34.6642 26.1757C34.6642 31.1463 30.6347 35.1757 25.6642 35.1757V37.1757C31.7393 37.1757 36.6642 32.2509 36.6642 26.1757H34.6642ZM25.6642 35.1757C20.6936 35.1757 16.6642 31.1463 16.6642 26.1757H14.6642C14.6642 32.2509 19.589 37.1757 25.6642 37.1757V35.1757ZM16.6642 26.1757C16.6642 21.2052 20.6936 17.1757 25.6642 17.1757V15.1757C19.589 15.1757 14.6642 20.1006 14.6642 26.1757H16.6642ZM25.6642 17.1757C30.6347 17.1757 34.6642 21.2052 34.6642 26.1757H36.6642C36.6642 20.1006 31.7393 15.1757 25.6642 15.1757V17.1757Z" fill="#69FF93" mask="url(#path-15-outside-4_2_2037)"/>
<path d="M28.638 22.3641C26.926 23.7752 24.4554 23.7757 22.7448 22.3658L19.8568 19.9849L22.2377 22.8729C23.6479 24.5837 23.6473 27.0544 22.236 28.7661L19.8568 31.6521L22.7428 29.2729C24.4548 27.8618 26.9254 27.8612 28.6359 29.2712L31.524 31.6521L29.1431 28.764C27.7329 27.0532 27.7334 24.5826 29.1448 22.8709L31.524 19.9849L28.638 22.3641Z" fill="white"/>
</svg>
