<svg width="54" height="55" viewBox="0 0 54 55" fill="none" xmlns="http://www.w3.org/2000/svg">
<path d="M12.5398 43.9287C12.3852 43.9287 12.2518 43.8727 12.1398 43.7607C12.0332 43.6487 11.9798 43.5154 11.9798 43.3607V39.0487C11.9798 38.782 12.0678 38.5847 12.2438 38.4567C12.4198 38.3234 12.6892 38.2567 13.0518 38.2567V43.0007H15.2118C15.4625 43.0007 15.6518 43.0807 15.7798 43.2407C15.9078 43.3954 15.9718 43.6247 15.9718 43.9287H12.5398ZM16.6673 38.8167C16.6673 38.6834 16.718 38.5687 16.8193 38.4727C16.926 38.3767 17.054 38.3287 17.2033 38.3287H20.7713C20.7713 38.6487 20.7153 38.8834 20.6033 39.0327C20.4967 39.1767 20.3207 39.2487 20.0753 39.2487H17.7393V40.6407H19.8673C19.8673 40.9607 19.8113 41.1954 19.6993 41.3447C19.5927 41.4887 19.4167 41.5607 19.1713 41.5607H17.7393V43.0087H20.2433C20.4833 43.0087 20.6567 43.0834 20.7633 43.2327C20.8753 43.3767 20.9313 43.6087 20.9313 43.9287H17.2033C17.054 43.9287 16.926 43.8834 16.8193 43.7927C16.718 43.6967 16.6673 43.5794 16.6673 43.4407V38.8167ZM22.0713 44.0007C21.8419 43.974 21.6606 43.894 21.5273 43.7607C21.3993 43.6274 21.3353 43.4594 21.3353 43.2567C21.3353 43.102 21.3726 42.942 21.4473 42.7767L23.2793 38.6087C23.3806 38.374 23.5566 38.2567 23.8073 38.2567C24.0526 38.2567 24.2259 38.374 24.3273 38.6087L26.1593 42.7767C26.2339 42.9527 26.2713 43.1127 26.2713 43.2567C26.2713 43.4594 26.2046 43.6274 26.0713 43.7607C25.9433 43.894 25.7619 43.974 25.5273 44.0007L24.8553 42.4807H22.7513L22.0713 44.0007ZM24.5273 41.5687L23.6473 39.3767L23.5513 39.4167L23.7433 39.9127L23.0713 41.5687H24.5273ZM27.5862 43.9287C27.4368 43.9287 27.3088 43.8834 27.2022 43.7927C27.1008 43.6967 27.0502 43.5794 27.0502 43.4407V38.8167C27.0502 38.678 27.1008 38.5634 27.2022 38.4727C27.3035 38.3767 27.4315 38.3287 27.5862 38.3287H29.3622C29.8368 38.3287 30.2555 38.4194 30.6182 38.6007C30.9862 38.782 31.2688 39.038 31.4662 39.3687C31.6688 39.694 31.7702 40.0674 31.7702 40.4887V41.7527C31.7702 42.174 31.6688 42.55 31.4662 42.8807C31.2635 43.2114 30.9782 43.47 30.6102 43.6567C30.2475 43.838 29.8315 43.9287 29.3622 43.9287H27.5862ZM29.2822 43.0087C29.7462 43.0087 30.0982 42.9047 30.3382 42.6967C30.5782 42.4834 30.6982 42.1714 30.6982 41.7607V40.4727C30.6982 40.0727 30.5782 39.7687 30.3382 39.5607C30.0982 39.3527 29.7462 39.2487 29.2822 39.2487H28.1222V43.0087H29.2822ZM32.5736 38.8167C32.5736 38.6834 32.6243 38.5687 32.7256 38.4727C32.8323 38.3767 32.9603 38.3287 33.1096 38.3287H36.6776C36.6776 38.6487 36.6216 38.8834 36.5096 39.0327C36.4029 39.1767 36.2269 39.2487 35.9816 39.2487H33.6456V40.6407H35.7736C35.7736 40.9607 35.7176 41.1954 35.6056 41.3447C35.4989 41.4887 35.3229 41.5607 35.0776 41.5607H33.6456V43.0087H36.1496C36.3896 43.0087 36.5629 43.0834 36.6696 43.2327C36.7816 43.3767 36.8376 43.6087 36.8376 43.9287H33.1096C32.9603 43.9287 32.8323 43.8834 32.7256 43.7927C32.6243 43.6967 32.5736 43.5794 32.5736 43.4407V38.8167ZM37.6127 38.8167C37.6127 38.678 37.6633 38.5634 37.7647 38.4727C37.866 38.3767 37.994 38.3287 38.1487 38.3287H40.2847C40.8607 38.3287 41.306 38.4807 41.6207 38.7847C41.9407 39.0887 42.1007 39.5154 42.1007 40.0647C42.1007 40.3794 42.0367 40.646 41.9087 40.8647C41.7807 41.078 41.586 41.2487 41.3247 41.3767V41.4007C41.794 41.6087 42.0287 42.0034 42.0287 42.5847V43.2087C42.0287 43.4647 41.938 43.662 41.7567 43.8007C41.5753 43.934 41.3087 44.0007 40.9567 44.0007V42.6327C40.9567 42.35 40.9007 42.142 40.7887 42.0087C40.6767 41.8754 40.506 41.8087 40.2767 41.8087H38.6687V43.2087C38.6687 43.47 38.578 43.6674 38.3967 43.8007C38.2207 43.934 37.9593 44.0007 37.6127 44.0007V38.8167ZM40.2287 40.8967C40.4847 40.8967 40.682 40.8247 40.8207 40.6807C40.9593 40.5314 41.0287 40.3234 41.0287 40.0567C41.0287 39.5127 40.762 39.2407 40.2287 39.2407H38.6687V40.8967H40.2287Z" fill="#A7A7A7"/>
<path d="M33 20.8593V20.8593C32.2474 23.303 30.5262 25.3315 28.2377 26.4721L27.2143 26.9821M33 20.8593V13.9711M33 20.8593V20.8593C34.6569 20.8593 36 19.5161 36 17.8593V16.9711C36 15.3143 34.6569 13.9711 33 13.9711V13.9711M21 20.8593V20.8593C22.0369 23.3282 23.9253 25.343 26.322 26.5374L27.2143 26.9821M21 20.8593V20.8593C19.3432 20.8593 18 19.5161 18 17.8593V16.9711C18 15.3143 19.3432 13.9711 21 13.9711V13.9711M21 20.8593V13.9711M27.2143 26.9821V31.1915M33 31.1915H27.2143M21 31.1915H27.2143M33 13.9711V12.0577H21V13.9711" stroke="#A7A7A7" stroke-width="2" stroke-linejoin="round"/>
</svg>
