<svg width="55" height="55" viewBox="0 0 55 55" fill="none" xmlns="http://www.w3.org/2000/svg">
<g clip-path="url(#clip0_2_1613)">
<path d="M17.1946 39.2085C17.1946 39.0698 17.2453 38.9552 17.3466 38.8645C17.4479 38.7685 17.5759 38.7205 17.7306 38.7205H19.8666C20.4426 38.7205 20.8879 38.8725 21.2026 39.1765C21.5226 39.4805 21.6826 39.9072 21.6826 40.4565C21.6826 40.7712 21.6186 41.0378 21.4906 41.2565C21.3626 41.4698 21.1679 41.6405 20.9066 41.7685V41.7925C21.3759 42.0005 21.6106 42.3952 21.6106 42.9765V43.6005C21.6106 43.8565 21.5199 44.0538 21.3386 44.1925C21.1573 44.3258 20.8906 44.3925 20.5386 44.3925V43.0245C20.5386 42.7418 20.4826 42.5338 20.3706 42.4005C20.2586 42.2672 20.0879 42.2005 19.8586 42.2005H18.2506V43.6005C18.2506 43.8618 18.1599 44.0592 17.9786 44.1925C17.8026 44.3258 17.5413 44.3925 17.1946 44.3925V39.2085ZM19.8106 41.2885C20.0666 41.2885 20.2639 41.2165 20.4026 41.0725C20.5413 40.9232 20.6106 40.7152 20.6106 40.4485C20.6106 39.9045 20.3439 39.6325 19.8106 39.6325H18.2506V41.2885H19.8106ZM23.1142 44.3925C22.8848 44.3658 22.7035 44.2858 22.5702 44.1525C22.4422 44.0192 22.3782 43.8512 22.3782 43.6485C22.3782 43.4938 22.4155 43.3338 22.4902 43.1685L24.3222 39.0005C24.4235 38.7658 24.5995 38.6485 24.8502 38.6485C25.0955 38.6485 25.2688 38.7658 25.3702 39.0005L27.2022 43.1685C27.2768 43.3445 27.3142 43.5045 27.3142 43.6485C27.3142 43.8512 27.2475 44.0192 27.1142 44.1525C26.9862 44.2858 26.8048 44.3658 26.5702 44.3925L25.8982 42.8725H23.7942L23.1142 44.3925ZM25.5702 41.9605L24.6902 39.7685L24.5942 39.8085L24.7862 40.3045L24.1142 41.9605H25.5702ZM28.093 39.4965C28.093 39.2352 28.181 39.0298 28.357 38.8805C28.533 38.7258 28.7704 38.6485 29.069 38.6485L31.773 42.8725L31.853 42.8085L31.525 42.2645V38.6485C31.8717 38.6485 32.133 38.7152 32.309 38.8485C32.4904 38.9818 32.581 39.1792 32.581 39.4405V43.6645C32.581 43.8618 32.4957 44.0325 32.325 44.1765C32.1597 44.3205 31.9677 44.3925 31.749 44.3925L28.901 39.9365L28.821 40.0085L29.149 40.5525V43.6005C29.149 43.8618 29.0584 44.0592 28.877 44.1925C28.701 44.3258 28.4397 44.3925 28.093 44.3925V39.4965ZM33.5149 39.4565C33.5149 39.1952 33.6082 38.9952 33.7949 38.8565C33.9816 38.7178 34.2456 38.6485 34.5869 38.6485V41.2165L37.2669 38.6485C37.4002 38.7445 37.5069 38.8538 37.5869 38.9765C37.6722 39.0938 37.7149 39.1978 37.7149 39.2885C37.7149 39.3685 37.6856 39.4485 37.6269 39.5285C37.5736 39.6032 37.4909 39.6938 37.3789 39.8005L35.7789 41.3125L37.9789 44.0565C37.8136 44.2805 37.5976 44.3925 37.3309 44.3925C37.0749 44.3925 36.8696 44.2965 36.7149 44.1045L35.0429 41.9845L34.5869 42.4325V43.6325C34.5869 43.8938 34.5016 44.0858 34.3309 44.2085C34.1602 44.3312 33.8882 44.3925 33.5149 44.3925V39.4565Z" fill="#69FF93"/>
<path d="M27.4999 11.0952L34.7892 12.6855C35.1946 12.7744 35.4838 13.1271 35.4838 13.5356V22.234C35.4838 23.9811 34.5941 25.6133 33.1135 26.5818L27.4999 30.2564L21.8864 26.5818C20.4049 25.6124 19.5161 23.9811 19.5161 22.2348V13.5356C19.5161 13.1271 19.8053 12.7744 20.2107 12.6855L27.4999 11.0952ZM27.4999 12.8798L21.2903 14.2341V22.234C21.2903 23.3984 21.8828 24.4863 22.8702 25.1325L27.4999 28.1635L32.1297 25.1325C33.117 24.4863 33.7096 23.3993 33.7096 22.2348V14.2341L27.4999 12.8798Z" fill="#69FF93"/>
<path d="M27.4999 15.3955C27.21 17.8708 25.8851 20.1176 23.8407 21.6012C26.175 20.6094 28.8249 20.6094 31.1592 21.6012C29.1148 20.1177 27.7901 17.8708 27.4999 15.3955Z" fill="#69FF93"/>
</g>
<rect x="0.499969" y="0.951294" width="54" height="53" rx="7.5" stroke="url(#paint0_linear_2_1613)"/>
<defs>
<linearGradient id="paint0_linear_2_1613" x1="55" y1="27.4513" x2="55" y2="0.451294" gradientUnits="userSpaceOnUse">
<stop stop-color="#69FF93" stop-opacity="0"/>
<stop offset="1" stop-color="#69FF93" stop-opacity="0.5"/>
</linearGradient>
<clipPath id="clip0_2_1613">
<rect x="-3.05176e-05" y="0.451294" width="55" height="54" rx="8" fill="white"/>
</clipPath>
</defs>
</svg>
