<svg width="54" height="55" viewBox="0 0 54 55" fill="none" xmlns="http://www.w3.org/2000/svg">
<path d="M16.5347 39.6488H14.6067C14.6067 39.0301 14.8867 38.7208 15.4467 38.7208H19.5347C19.5347 39.3394 19.2521 39.6488 18.6867 39.6488H17.6067V43.6008C17.6067 43.8568 17.5161 44.0541 17.3347 44.1928C17.1534 44.3261 16.8867 44.3928 16.5347 44.3928V39.6488ZM19.8837 44.3928C19.6543 44.3661 19.473 44.2861 19.3397 44.1528C19.2117 44.0194 19.1477 43.8514 19.1477 43.6488C19.1477 43.4941 19.185 43.3341 19.2597 43.1688L21.0917 39.0008C21.193 38.7661 21.369 38.6488 21.6197 38.6488C21.865 38.6488 22.0383 38.7661 22.1397 39.0008L23.9717 43.1688C24.0463 43.3448 24.0837 43.5048 24.0837 43.6488C24.0837 43.8514 24.017 44.0194 23.8837 44.1528C23.7557 44.2861 23.5743 44.3661 23.3397 44.3928L22.6677 42.8728H20.5637L19.8837 44.3928ZM22.3397 41.9608L21.4597 39.7688L21.3637 39.8088L21.5557 40.3048L20.8837 41.9608H22.3397ZM26.8594 44.3928C26.3794 44.3928 25.9608 44.3341 25.6034 44.2168C25.2461 44.0994 24.9714 43.9341 24.7794 43.7208C24.5928 43.5021 24.4994 43.2488 24.4994 42.9608C24.4994 42.5234 24.7954 42.3048 25.3874 42.3048C25.4088 42.7101 25.5448 43.0168 25.7954 43.2248C26.0514 43.4328 26.4088 43.5368 26.8674 43.5368C27.2461 43.5368 27.5394 43.4728 27.7474 43.3448C27.9554 43.2114 28.0594 43.0274 28.0594 42.7928C28.0594 42.6381 28.0194 42.5128 27.9394 42.4168C27.8594 42.3154 27.7234 42.2274 27.5314 42.1528C27.3394 42.0728 27.0594 41.9928 26.6914 41.9128C26.1688 41.7901 25.7554 41.6541 25.4514 41.5048C25.1528 41.3554 24.9368 41.1768 24.8034 40.9688C24.6701 40.7554 24.6034 40.4914 24.6034 40.1768C24.6034 39.8728 24.6914 39.6061 24.8674 39.3768C25.0488 39.1474 25.3021 38.9688 25.6274 38.8408C25.9581 38.7128 26.3368 38.6488 26.7634 38.6488C27.1741 38.6488 27.5394 38.7048 27.8594 38.8168C28.1848 38.9234 28.4381 39.0754 28.6194 39.2728C28.8061 39.4701 28.8994 39.6968 28.8994 39.9528C28.8994 40.3474 28.6141 40.5528 28.0434 40.5688C28.0114 40.2008 27.8941 39.9314 27.6914 39.7608C27.4888 39.5901 27.1794 39.5048 26.7634 39.5048C26.4061 39.5048 26.1314 39.5634 25.9394 39.6808C25.7474 39.7981 25.6514 39.9634 25.6514 40.1768C25.6514 40.3261 25.6888 40.4514 25.7634 40.5528C25.8381 40.6488 25.9634 40.7341 26.1394 40.8088C26.3154 40.8781 26.5661 40.9501 26.8914 41.0248C27.4408 41.1474 27.8754 41.2861 28.1954 41.4408C28.5154 41.5901 28.7474 41.7741 28.8914 41.9928C29.0354 42.2061 29.1074 42.4701 29.1074 42.7848C29.1074 43.1101 29.0141 43.3954 28.8274 43.6408C28.6461 43.8808 28.3848 44.0674 28.0434 44.2008C27.7074 44.3288 27.3128 44.3928 26.8594 44.3928ZM29.8782 39.4568C29.8782 39.1954 29.9715 38.9954 30.1582 38.8568C30.3448 38.7181 30.6088 38.6488 30.9502 38.6488V41.2168L33.6302 38.6488C33.7635 38.7448 33.8702 38.8541 33.9502 38.9768C34.0355 39.0941 34.0782 39.1981 34.0782 39.2888C34.0782 39.3688 34.0488 39.4488 33.9902 39.5288C33.9368 39.6034 33.8542 39.6941 33.7422 39.8008L32.1422 41.3128L34.3422 44.0568C34.1768 44.2808 33.9608 44.3928 33.6942 44.3928C33.4382 44.3928 33.2328 44.2968 33.0782 44.1048L31.4062 41.9848L30.9502 42.4328V43.6328C30.9502 43.8941 30.8648 44.0861 30.6942 44.2088C30.5235 44.3314 30.2515 44.3928 29.8782 44.3928V39.4568ZM37.0704 44.3928C36.5904 44.3928 36.1717 44.3341 35.8144 44.2168C35.457 44.0994 35.1824 43.9341 34.9904 43.7208C34.8037 43.5021 34.7104 43.2488 34.7104 42.9608C34.7104 42.5234 35.0064 42.3048 35.5984 42.3048C35.6197 42.7101 35.7557 43.0168 36.0064 43.2248C36.2624 43.4328 36.6197 43.5368 37.0784 43.5368C37.457 43.5368 37.7504 43.4728 37.9584 43.3448C38.1664 43.2114 38.2704 43.0274 38.2704 42.7928C38.2704 42.6381 38.2304 42.5128 38.1504 42.4168C38.0704 42.3154 37.9344 42.2274 37.7424 42.1528C37.5504 42.0728 37.2704 41.9928 36.9024 41.9128C36.3797 41.7901 35.9664 41.6541 35.6624 41.5048C35.3637 41.3554 35.1477 41.1768 35.0144 40.9688C34.881 40.7554 34.8144 40.4914 34.8144 40.1768C34.8144 39.8728 34.9024 39.6061 35.0784 39.3768C35.2597 39.1474 35.513 38.9688 35.8384 38.8408C36.169 38.7128 36.5477 38.6488 36.9744 38.6488C37.385 38.6488 37.7504 38.7048 38.0704 38.8168C38.3957 38.9234 38.649 39.0754 38.8304 39.2728C39.017 39.4701 39.1104 39.6968 39.1104 39.9528C39.1104 40.3474 38.825 40.5528 38.2544 40.5688C38.2224 40.2008 38.105 39.9314 37.9024 39.7608C37.6997 39.5901 37.3904 39.5048 36.9744 39.5048C36.617 39.5048 36.3424 39.5634 36.1504 39.6808C35.9584 39.7981 35.8624 39.9634 35.8624 40.1768C35.8624 40.3261 35.8997 40.4514 35.9744 40.5528C36.049 40.6488 36.1744 40.7341 36.3504 40.8088C36.5264 40.8781 36.777 40.9501 37.1024 41.0248C37.6517 41.1474 38.0864 41.2861 38.4064 41.4408C38.7264 41.5901 38.9584 41.7741 39.1024 41.9928C39.2464 42.2061 39.3184 42.4701 39.3184 42.7848C39.3184 43.1101 39.225 43.3954 39.0384 43.6408C38.857 43.8808 38.5957 44.0674 38.2544 44.2008C37.9184 44.3288 37.5237 44.3928 37.0704 44.3928Z" fill="#A7A7A7"/>
<g clip-path="url(#clip0_2_1609)">
<path d="M33.0967 29.0341H20.9032C20.2102 29.0341 19.5456 28.7588 19.0556 28.2688C18.5656 27.7788 18.2903 27.1142 18.2903 26.4212V12.4857C18.2903 12.2547 18.382 12.0332 18.5454 11.8698C18.7087 11.7065 18.9302 11.6147 19.1612 11.6147H31.3548C31.5858 11.6147 31.8073 11.7065 31.9707 11.8698C32.134 12.0332 32.2258 12.2547 32.2258 12.4857V22.9373H35.7096V26.4212C35.7096 27.1142 35.4343 27.7788 34.9443 28.2688C34.4543 28.7588 33.7897 29.0341 33.0967 29.0341ZM32.2258 24.6792V26.4212C32.2258 26.6522 32.3175 26.8737 32.4809 27.037C32.6442 27.2004 32.8657 27.2921 33.0967 27.2921C33.3277 27.2921 33.5492 27.2004 33.7126 27.037C33.8759 26.8737 33.9677 26.6522 33.9677 26.4212V24.6792H32.2258ZM30.4838 27.2921V13.3567H20.0322V26.4212C20.0322 26.6522 20.124 26.8737 20.2873 27.037C20.4506 27.2004 20.6722 27.2921 20.9032 27.2921H30.4838ZM21.7741 15.9696H28.7419V17.7115H21.7741V15.9696ZM21.7741 19.4534H28.7419V21.1954H21.7741V19.4534ZM21.7741 22.9373H26.129V24.6792H21.7741V22.9373Z" fill="#A7A7A7"/>
</g>
<defs>
<clipPath id="clip0_2_1609">
<rect width="20.9032" height="20.9032" fill="white" transform="translate(16.5483 9.87277)"/>
</clipPath>
</defs>
</svg>
