<svg width="55" height="66" viewBox="0 0 55 66" fill="none" xmlns="http://www.w3.org/2000/svg">
<mask id="path-1-outside-1_2_2205" maskUnits="userSpaceOnUse" x="5.11668" y="4.8493" width="46" height="61" fill="black">
<rect fill="white" x="5.11668" y="4.8493" width="46" height="61"/>
<path d="M27.9846 62.9402L11.0641 49.8205C8.58941 47.9017 7.11668 44.7742 7.11668 41.4377L7.11669 13.171L27.9846 7.8493L48.253 13.171L48.253 41.4377C48.253 44.7804 46.7992 47.9203 44.3442 49.8802L27.9846 62.9402Z"/>
</mask>
<path d="M27.9846 62.9402L11.0641 49.8205C8.58941 47.9017 7.11668 44.7742 7.11668 41.4377L7.11669 13.171L27.9846 7.8493L48.253 13.171L48.253 41.4377C48.253 44.7804 46.7992 47.9203 44.3442 49.8802L27.9846 62.9402Z" fill="#455D4C"/>
<path d="M11.0641 49.8205L9.83855 51.401L9.83855 51.401L11.0641 49.8205ZM27.9846 62.9402L26.7591 64.5207L28.0026 65.4849L29.2324 64.5032L27.9846 62.9402ZM7.11669 13.171L6.62247 11.233L5.11669 11.617L5.11669 13.171L7.11669 13.171ZM7.11668 41.4377L9.11668 41.4377L9.11668 41.4377L7.11668 41.4377ZM27.9846 7.8493L28.4925 5.91487L27.9919 5.78343L27.4904 5.91133L27.9846 7.8493ZM48.253 13.171L50.253 13.171L50.253 11.6284L48.7609 11.2366L48.253 13.171ZM48.253 41.4377L46.253 41.4377L46.253 41.4377L48.253 41.4377ZM44.3442 49.8802L45.592 51.4432L45.592 51.4432L44.3442 49.8802ZM9.83855 51.401L26.7591 64.5207L29.2101 61.3596L12.2896 48.2399L9.83855 51.401ZM5.11669 13.171L5.11668 41.4377L9.11668 41.4377L9.11669 13.171L5.11669 13.171ZM27.4904 5.91133L6.62247 11.233L7.61091 15.109L28.4788 9.78728L27.4904 5.91133ZM48.7609 11.2366L28.4925 5.91487L27.4767 9.78374L47.745 15.1055L48.7609 11.2366ZM50.253 41.4377L50.253 13.171L46.253 13.171L46.253 41.4377L50.253 41.4377ZM29.2324 64.5032L45.592 51.4432L43.0964 48.3172L26.7368 61.3772L29.2324 64.5032ZM45.592 51.4432C48.5564 49.0767 50.253 45.3438 50.253 41.4377L46.253 41.4377C46.253 44.2171 45.0421 46.764 43.0964 48.3172L45.592 51.4432ZM12.2896 48.2399C10.3394 46.7278 9.11668 44.2028 9.11668 41.4377L5.11668 41.4377C5.11668 45.3455 6.83945 49.0756 9.83855 51.401L12.2896 48.2399Z" fill="#050F11" mask="url(#path-1-outside-1_2_2205)"/>
<mask id="path-3-inside-2_2_2205" fill="white">
<path d="M27.9845 58.0308L11.064 44.9111C8.58932 42.9924 7.11659 39.8648 7.11659 36.5283L7.1166 8.26166L27.9845 2.93994L48.2529 8.26166V15.3283V22.395V29.4617L48.2529 36.5283C48.2529 39.8711 46.7991 43.011 44.3441 44.9708L27.9845 58.0308Z"/>
</mask>
<path d="M27.9845 58.0308L11.064 44.9111C8.58932 42.9924 7.11659 39.8648 7.11659 36.5283L7.1166 8.26166L27.9845 2.93994L48.2529 8.26166V15.3283V22.395V29.4617L48.2529 36.5283C48.2529 39.8711 46.7991 43.011 44.3441 44.9708L27.9845 58.0308Z" fill="#050F11"/>
<path d="M11.064 44.9111L10.4512 45.7014L10.4512 45.7014L11.064 44.9111ZM27.9845 58.0308L27.3718 58.8211L27.9935 59.3032L28.6084 58.8123L27.9845 58.0308ZM7.1166 8.26166L6.86949 7.29267L6.1166 7.48467L6.1166 8.26166L7.1166 8.26166ZM7.11659 36.5283L8.11659 36.5283L8.11659 36.5283L7.11659 36.5283ZM27.9845 2.93994L28.2385 1.97273L27.9882 1.907L27.7374 1.97095L27.9845 2.93994ZM48.2529 8.26166H49.2529V7.49033L48.5068 7.29444L48.2529 8.26166ZM48.2529 36.5283L49.2529 36.5283L49.2529 36.5283L48.2529 36.5283ZM44.3441 44.9708L44.968 45.7524L44.968 45.7524L44.3441 44.9708ZM48.2529 29.4617L47.2529 29.4617L47.2529 29.4617L48.2529 29.4617ZM10.4512 45.7014L27.3718 58.8211L28.5973 57.2406L11.6767 44.1209L10.4512 45.7014ZM6.1166 8.26166L6.11659 36.5283L8.11659 36.5283L8.1166 8.26166L6.1166 8.26166ZM27.7374 1.97095L6.86949 7.29267L7.36371 9.23065L28.2316 3.90893L27.7374 1.97095ZM48.5068 7.29444L28.2385 1.97273L27.7305 3.90716L47.9989 9.22887L48.5068 7.29444ZM28.6084 58.8123L44.968 45.7524L43.7202 44.1893L27.3606 57.2493L28.6084 58.8123ZM44.968 45.7524C47.6777 43.5891 49.2529 40.1528 49.2529 36.5283L47.2529 36.5283C47.2529 39.5894 45.9206 42.4328 43.7202 44.1893L44.968 45.7524ZM11.6767 44.1209C9.46431 42.4054 8.11659 39.5791 8.11659 36.5283L6.11659 36.5283C6.11659 40.1505 7.71434 43.5793 10.4512 45.7014L11.6767 44.1209ZM49.2529 22.395V15.3283H47.2529V22.395H49.2529ZM49.2529 15.3283V8.26166H47.2529V15.3283H49.2529ZM49.2529 36.5283L49.2529 29.4617L47.2529 29.4617L47.2529 36.5283L49.2529 36.5283ZM49.2529 29.4617V22.395H47.2529V29.4617H49.2529Z" fill="#69FF93" mask="url(#path-3-inside-2_2_2205)"/>
<path d="M46.0781 27.8553L9.315 27.8553" stroke="#69FF93" stroke-miterlimit="10"/>
<path d="M27.6966 9.07539L27.6965 47.613" stroke="#69FF93" stroke-miterlimit="10"/>
<path d="M14.0615 41.1306L40.7842 14.2272" stroke="#69FF93" stroke-miterlimit="10"/>
<path d="M41.5065 41.1335L13.9523 14.1907" stroke="#69FF93" stroke-miterlimit="10"/>
<rect x="25.6052" y="7.46741" width="3" height="3" transform="rotate(-45 25.6052 7.46741)" fill="#69FF93"/>
<rect x="42.3434" y="27.848" width="3" height="3" transform="rotate(-45 42.3434 27.848)" fill="#69FF93"/>
<rect x="40.0065" y="12.2573" width="3" height="3" fill="#69FF93"/>
<rect x="12.0519" y="12.2747" width="3" height="3" fill="#69FF93"/>
<rect x="40.0065" y="39.6828" width="3" height="3" fill="#69FF93"/>
<rect x="12.0519" y="39.6332" width="3" height="3" fill="#69FF93"/>
<rect x="8.80724" y="27.848" width="3" height="3" transform="rotate(-45 8.80724 27.848)" fill="#69FF93"/>
<rect x="25.6052" y="49.0842" width="3" height="3" transform="rotate(-45 25.6052 49.0842)" fill="#69FF93"/>
<mask id="path-17-outside-3_2_2205" maskUnits="userSpaceOnUse" x="11.1624" y="11.0172" width="34.2159" height="34.2159" fill="black">
<rect fill="white" x="11.1624" y="11.0172" width="34.2159" height="34.2159"/>
<path d="M41.3252 25.7433C42.4709 33.1847 37.3673 40.146 29.9259 41.2917C22.4845 42.4375 15.5233 37.3339 14.3775 29.8925C13.2318 22.4511 18.3354 15.4898 25.7768 14.3441C33.2182 13.1983 40.1794 18.302 41.3252 25.7433Z"/>
</mask>
<path d="M41.3252 25.7433C42.4709 33.1847 37.3673 40.146 29.9259 41.2917C22.4845 42.4375 15.5233 37.3339 14.3775 29.8925C13.2318 22.4511 18.3354 15.4898 25.7768 14.3441C33.2182 13.1983 40.1794 18.302 41.3252 25.7433Z" fill="#050F11"/>
<path d="M41.8194 25.6672C41.7626 25.2983 41.6919 24.9349 41.6081 24.5773L40.6345 24.8056C40.7125 25.138 40.7781 25.4761 40.831 25.8194L41.8194 25.6672ZM40.9342 22.4645C40.6517 21.7727 40.3172 21.1111 39.936 20.4836L39.0813 21.0027C39.4354 21.5855 39.7461 22.2 40.0083 22.8424L40.9342 22.4645ZM38.6386 18.6845C38.1586 18.1185 37.6357 17.5925 37.076 17.1108L36.4237 17.8687C36.944 18.3165 37.4299 18.8054 37.876 19.3313L38.6386 18.6845ZM35.2877 15.7997C34.6599 15.4108 34.001 15.0704 33.3169 14.7828L32.9294 15.7047C33.5651 15.9719 34.1775 16.2883 34.7612 16.6498L35.2877 15.7997ZM31.2108 14.0867C30.4977 13.912 29.7661 13.7919 29.0214 13.7307L28.9395 14.7273C29.631 14.7842 30.3105 14.8957 30.9728 15.058L31.2108 14.0867ZM26.8037 13.7235C26.4375 13.7511 26.0696 13.7931 25.7007 13.8499L25.8529 14.8383C26.1962 14.7854 26.5384 14.7463 26.8789 14.7207L26.8037 13.7235ZM25.7007 13.8499C25.3318 13.9067 24.9683 13.9773 24.6108 14.0611L24.8391 15.0347C25.1715 14.9568 25.5096 14.8911 25.8529 14.8383L25.7007 13.8499ZM22.4979 14.7351C21.8062 15.0175 21.1445 15.3521 20.517 15.7333L21.0362 16.5879C21.619 16.2339 22.2335 15.9232 22.8759 15.6609L22.4979 14.7351ZM18.7179 17.0306C18.152 17.5107 17.626 18.0335 17.1442 18.5932L17.9021 19.2456C18.35 18.7253 18.8389 18.2393 19.3648 17.7932L18.7179 17.0306ZM15.8331 20.3815C15.4443 21.0093 15.1039 21.6682 14.8163 22.3524L15.7382 22.7399C16.0054 22.1042 16.3218 21.4917 16.6833 20.9081L15.8331 20.3815ZM14.1202 24.4584C13.9454 25.1715 13.8254 25.9032 13.7642 26.6478L14.7608 26.7298C14.8177 26.0382 14.9291 25.3587 15.0915 24.6964L14.1202 24.4584ZM13.757 28.8656C13.7846 29.2318 13.8266 29.5996 13.8834 29.9686L14.8717 29.8164C14.8189 29.473 14.7798 29.1309 14.7541 28.7904L13.757 28.8656ZM13.8834 29.9686C13.9402 30.3375 14.0108 30.7009 14.0946 31.0585L15.0682 30.8302C14.9903 30.4978 14.9246 30.1597 14.8717 29.8164L13.8834 29.9686ZM14.7686 33.1713C15.051 33.8631 15.3855 34.5247 15.7667 35.1522L16.6214 34.6331C16.2674 34.0503 15.9567 33.4358 15.6944 32.7934L14.7686 33.1713ZM17.0641 36.9513C17.5442 37.5173 18.067 38.0433 18.6267 38.525L19.2791 37.7671C18.7587 37.3193 18.2728 36.8304 17.8267 36.3045L17.0641 36.9513ZM20.415 39.8361C21.0428 40.225 21.7017 40.5654 22.3859 40.853L22.7734 39.9311C22.1376 39.6639 21.5252 39.3475 20.9415 38.986L20.415 39.8361ZM24.4919 41.5491C25.205 41.7238 25.9366 41.8439 26.6813 41.9051L26.7633 40.9085C26.0717 40.8516 25.3922 40.7401 24.7299 40.5778L24.4919 41.5491ZM28.899 41.9123C29.2652 41.8847 29.6331 41.8427 30.002 41.7859L29.8498 40.7975C29.5065 40.8504 29.1643 40.8895 28.8239 40.9151L28.899 41.9123ZM30.002 41.7859C30.3709 41.7291 30.7344 41.6585 31.0919 41.5747L30.8637 40.6011C30.5313 40.679 30.1932 40.7447 29.8498 40.7975L30.002 41.7859ZM33.2048 40.9007C33.8965 40.6183 34.5582 40.2837 35.1857 39.9025L34.6665 39.0479C34.0837 39.4019 33.4693 39.7126 32.8268 39.9749L33.2048 40.9007ZM36.9848 38.6052C37.5507 38.1251 38.0767 37.6023 38.5585 37.0426L37.8006 36.3902C37.3527 36.9105 36.8638 37.3965 36.3379 37.8426L36.9848 38.6052ZM39.8696 35.2543C40.2585 34.6265 40.5988 33.9676 40.8864 33.2834L39.9646 32.8959C39.6973 33.5316 39.381 34.1441 39.0195 34.7277L39.8696 35.2543ZM41.5825 31.1774C41.7573 30.4643 41.8773 29.7326 41.9386 28.988L40.9419 28.906C40.8851 29.5976 40.7736 30.2771 40.6113 30.9394L41.5825 31.1774ZM41.9458 26.7702C41.9182 26.404 41.8762 26.0362 41.8194 25.6672L40.831 25.8194C40.8839 26.1628 40.9229 26.5049 40.9486 26.8454L41.9458 26.7702ZM42.3135 25.5912C42.2548 25.2095 42.1817 24.8333 42.0949 24.4632L40.1477 24.9197C40.2227 25.2396 40.2859 25.565 40.3368 25.8955L42.3135 25.5912ZM41.3971 22.2755C41.1046 21.5591 40.7581 20.8738 40.3633 20.224L38.654 21.2623C38.9944 21.8228 39.2932 22.4137 39.5454 23.0314L41.3971 22.2755ZM39.0199 18.361C38.5229 17.7751 37.9816 17.2305 37.4022 16.7318L36.0975 18.2476C36.5981 18.6785 37.0656 19.1489 37.4947 19.6548L39.0199 18.361ZM35.551 15.3746C34.9011 14.9721 34.219 14.6197 33.5106 14.3219L32.7356 16.1656C33.3471 16.4227 33.9363 16.7271 34.4979 17.0749L35.551 15.3746ZM31.3299 13.6011C30.5914 13.4201 29.8336 13.2958 29.0624 13.2324L28.8985 15.2256C29.5635 15.2803 30.2169 15.3875 30.8538 15.5436L31.3299 13.6011ZM26.7661 13.2249C26.387 13.2535 26.0063 13.297 25.6246 13.3557L25.929 15.3324C26.2595 15.2815 26.5889 15.244 26.9165 15.2193L26.7661 13.2249ZM25.6246 13.3557C25.2429 13.4145 24.8668 13.4876 24.4966 13.5744L24.9532 15.5215C25.273 15.4466 25.5984 15.3833 25.929 15.3324L25.6246 13.3557ZM22.3089 14.2722C21.5926 14.5647 20.9073 14.9112 20.2574 15.3059L21.2958 17.0153C21.8562 16.6748 22.4471 16.3761 23.0649 16.1238L22.3089 14.2722ZM18.3945 16.6493C17.8085 17.1464 17.264 17.6876 16.7653 18.267L18.2811 19.5718C18.712 19.0712 19.1823 18.6036 19.6882 18.1745L18.3945 16.6493ZM15.4081 20.1182C15.0055 20.7681 14.6531 21.4503 14.3554 22.1586L16.1991 22.9337C16.4562 22.3221 16.7605 21.7329 17.1083 21.1714L15.4081 20.1182ZM13.6346 24.3394C13.4536 25.0779 13.3293 25.8357 13.2658 26.6068L15.2591 26.7708C15.3138 26.1058 15.421 25.4524 15.5771 24.8155L13.6346 24.3394ZM13.2584 28.9031C13.287 29.2822 13.3304 29.6629 13.3892 30.0446L15.3659 29.7403C15.315 29.4097 15.2774 29.0804 15.2527 28.7528L13.2584 28.9031ZM13.3892 30.0446C13.448 30.4263 13.521 30.8025 13.6078 31.1726L15.555 30.7161C15.48 30.3962 15.4168 30.0708 15.3659 29.7403L13.3892 30.0446ZM14.3057 33.3603C14.5981 34.0767 14.9446 34.762 15.3394 35.4118L17.0487 34.3735C16.7083 33.813 16.4095 33.2221 16.1573 32.6044L14.3057 33.3603ZM16.6828 37.2748C17.1798 37.8607 17.7211 38.4053 18.3005 38.904L19.6052 37.3882C19.1046 36.9573 18.6371 36.4869 18.208 35.981L16.6828 37.2748ZM20.1517 40.2612C20.8016 40.6637 21.4838 41.0161 22.1921 41.3139L22.9671 39.4702C22.3556 39.2131 21.7664 38.9087 21.2048 38.5609L20.1517 40.2612ZM24.3729 42.0347C25.1114 42.2157 25.8691 42.34 26.6403 42.4034L26.8043 40.4102C26.1392 40.3555 25.4858 40.2483 24.8489 40.0922L24.3729 42.0347ZM28.9366 42.4109C29.3157 42.3823 29.6964 42.3388 30.0781 42.2801L29.7738 40.3034C29.4432 40.3543 29.1139 40.3918 28.7863 40.4165L28.9366 42.4109ZM30.0781 42.2801C30.4598 42.2213 30.836 42.1482 31.2061 42.0614L30.7495 40.1143C30.4297 40.1892 30.1043 40.2525 29.7738 40.3034L30.0781 42.2801ZM33.3938 41.3636C34.1102 41.0711 34.7954 40.7246 35.4453 40.3299L34.407 38.6205C33.8465 38.961 33.2556 39.2597 32.6378 39.512L33.3938 41.3636ZM37.3082 38.9865C37.8942 38.4894 38.4387 37.9482 38.9375 37.3688L37.4217 36.064C36.9907 36.5646 36.5204 37.0322 36.0145 37.4613L37.3082 38.9865ZM40.2947 35.5176C40.6972 34.8677 41.0496 34.1855 41.3474 33.4772L39.5036 32.7021C39.2466 33.3137 38.9422 33.9029 38.5944 34.4644L40.2947 35.5176ZM42.0682 31.2964C42.2491 30.5579 42.3735 29.8001 42.4369 29.029L40.4436 28.865C40.3889 29.53 40.2817 30.1834 40.1256 30.8203L42.0682 31.2964ZM42.4443 26.7327C42.4158 26.3536 42.3723 25.9729 42.3135 25.5912L40.3368 25.8955C40.3877 26.2261 40.4253 26.5554 40.45 26.883L42.4443 26.7327Z" fill="#69FF93" mask="url(#path-17-outside-3_2_2205)"/>
<mask id="path-19-outside-4_2_2205" maskUnits="userSpaceOnUse" x="16.8514" y="16.8198" width="22" height="22" fill="black">
<rect fill="white" x="16.8514" y="16.8198" width="22" height="22"/>
<path d="M37.8514 27.8198C37.8514 33.3427 33.3742 37.8198 27.8514 37.8198C22.3285 37.8198 17.8514 33.3427 17.8514 27.8198C17.8514 22.297 22.3285 17.8198 27.8514 17.8198C33.3742 17.8198 37.8514 22.297 37.8514 27.8198Z"/>
</mask>
<path d="M37.8514 27.8198C37.8514 33.3427 33.3742 37.8198 27.8514 37.8198C22.3285 37.8198 17.8514 33.3427 17.8514 27.8198C17.8514 22.297 22.3285 17.8198 27.8514 17.8198C33.3742 17.8198 37.8514 22.297 37.8514 27.8198Z" fill="#050F11"/>
<path d="M36.8514 27.8198C36.8514 32.7904 32.8219 36.8198 27.8514 36.8198V38.8198C33.9265 38.8198 38.8514 33.895 38.8514 27.8198H36.8514ZM27.8514 36.8198C22.8808 36.8198 18.8514 32.7904 18.8514 27.8198H16.8514C16.8514 33.895 21.7762 38.8198 27.8514 38.8198V36.8198ZM18.8514 27.8198C18.8514 22.8493 22.8808 18.8198 27.8514 18.8198V16.8198C21.7762 16.8198 16.8514 21.7447 16.8514 27.8198H18.8514ZM27.8514 18.8198C32.8219 18.8198 36.8514 22.8493 36.8514 27.8198H38.8514C38.8514 21.7447 33.9265 16.8198 27.8514 16.8198V18.8198Z" fill="#69FF93" mask="url(#path-19-outside-4_2_2205)"/>
<path d="M26.8229 25.5649L27.2427 25.0051L21.8931 21.9675L23.7506 25.2395L26.8229 25.5649Z" fill="white"/>
<path d="M33.8097 21.9675L30.5377 23.8254L30.2123 26.8973L30.7721 27.3175L33.8097 21.9675Z" fill="white"/>
<path d="M21.8931 33.8841L25.1647 32.0265L25.4905 28.9543L24.9307 28.5345L21.8931 33.8841Z" fill="white"/>
<path d="M28.8799 30.2867L28.46 30.8465L33.8097 33.8841L31.9521 30.6125L28.8799 30.2867Z" fill="white"/>
<path d="M28.8908 27.4732L29.209 24.4728L27.3985 26.8864L24.3984 26.5685L26.812 28.3787L26.4937 31.3788L28.3043 28.9656L31.3044 29.2834L28.8908 27.4732Z" fill="white"/>
</svg>
