<svg width="54" height="55" viewBox="0 0 54 55" fill="none" xmlns="http://www.w3.org/2000/svg">
<path d="M14.4993 39.2084C14.4993 39.0751 14.55 38.9604 14.6513 38.8644C14.758 38.7684 14.886 38.7204 15.0353 38.7204H18.6593C18.6593 39.0404 18.6033 39.2751 18.4913 39.4244C18.3846 39.5684 18.2086 39.6404 17.9633 39.6404H15.5713V40.9924H17.6993C17.6993 41.3124 17.6433 41.5471 17.5313 41.6964C17.4246 41.8404 17.2486 41.9124 17.0033 41.9124H15.5713V43.6324C15.5713 43.8991 15.486 44.0937 15.3153 44.2164C15.1446 44.3337 14.8726 44.3924 14.4993 44.3924V39.2084ZM19.4134 39.2084C19.4134 39.0697 19.464 38.9551 19.5654 38.8644C19.6667 38.7684 19.7947 38.7204 19.9494 38.7204H22.0854C22.6614 38.7204 23.1067 38.8724 23.4214 39.1764C23.7414 39.4804 23.9014 39.9071 23.9014 40.4564C23.9014 40.7711 23.8374 41.0377 23.7094 41.2564C23.5814 41.4697 23.3867 41.6404 23.1254 41.7684V41.7924C23.5947 42.0004 23.8294 42.3951 23.8294 42.9764V43.6004C23.8294 43.8564 23.7387 44.0537 23.5574 44.1924C23.376 44.3257 23.1094 44.3924 22.7574 44.3924V43.0244C22.7574 42.7417 22.7014 42.5337 22.5894 42.4004C22.4774 42.2671 22.3067 42.2004 22.0774 42.2004H20.4694V43.6004C20.4694 43.8617 20.3787 44.0591 20.1974 44.1924C20.0214 44.3257 19.76 44.3924 19.4134 44.3924V39.2084ZM22.0294 41.2884C22.2854 41.2884 22.4827 41.2164 22.6214 41.0724C22.76 40.9231 22.8294 40.7151 22.8294 40.4484C22.8294 39.9044 22.5627 39.6324 22.0294 39.6324H20.4694V41.2884H22.0294ZM24.7649 39.2084C24.7649 39.0751 24.8156 38.9604 24.9169 38.8644C25.0236 38.7684 25.1516 38.7204 25.3009 38.7204H28.8689C28.8689 39.0404 28.8129 39.2751 28.7009 39.4244C28.5943 39.5684 28.4183 39.6404 28.1729 39.6404H25.8369V41.0324H27.9649C27.9649 41.3524 27.9089 41.5871 27.7969 41.7364C27.6903 41.8804 27.5143 41.9524 27.2689 41.9524H25.8369V43.4004H28.3409C28.5809 43.4004 28.7543 43.4751 28.8609 43.6244C28.9729 43.7684 29.0289 44.0004 29.0289 44.3204H25.3009C25.1516 44.3204 25.0236 44.2751 24.9169 44.1844C24.8156 44.0884 24.7649 43.9711 24.7649 43.8324V39.2084ZM29.804 39.4964C29.804 39.2351 29.892 39.0297 30.068 38.8804C30.244 38.7257 30.4813 38.6484 30.78 38.6484L33.484 42.8724L33.564 42.8084L33.236 42.2644V38.6484C33.5827 38.6484 33.844 38.7151 34.02 38.8484C34.2013 38.9817 34.292 39.1791 34.292 39.4404V43.6644C34.292 43.8617 34.2067 44.0324 34.036 44.1764C33.8707 44.3204 33.6787 44.3924 33.46 44.3924L30.612 39.9364L30.532 40.0084L30.86 40.5524V43.6004C30.86 43.8617 30.7693 44.0591 30.588 44.1924C30.412 44.3257 30.1507 44.3924 29.804 44.3924V39.4964ZM37.4259 44.3924C36.9459 44.3924 36.5272 44.3337 36.1699 44.2164C35.8125 44.0991 35.5379 43.9337 35.3459 43.7204C35.1592 43.5017 35.0659 43.2484 35.0659 42.9604C35.0659 42.5231 35.3619 42.3044 35.9539 42.3044C35.9752 42.7097 36.1112 43.0164 36.3619 43.2244C36.6179 43.4324 36.9752 43.5364 37.4339 43.5364C37.8125 43.5364 38.1059 43.4724 38.3139 43.3444C38.5219 43.2111 38.6259 43.0271 38.6259 42.7924C38.6259 42.6377 38.5859 42.5124 38.5059 42.4164C38.4259 42.3151 38.2899 42.2271 38.0979 42.1524C37.9059 42.0724 37.6259 41.9924 37.2579 41.9124C36.7352 41.7897 36.3219 41.6537 36.0179 41.5044C35.7192 41.3551 35.5032 41.1764 35.3699 40.9684C35.2365 40.7551 35.1699 40.4911 35.1699 40.1764C35.1699 39.8724 35.2579 39.6057 35.4339 39.3764C35.6152 39.1471 35.8685 38.9684 36.1939 38.8404C36.5245 38.7124 36.9032 38.6484 37.3299 38.6484C37.7405 38.6484 38.1059 38.7044 38.4259 38.8164C38.7512 38.9231 39.0045 39.0751 39.1859 39.2724C39.3725 39.4697 39.4659 39.6964 39.4659 39.9524C39.4659 40.3471 39.1805 40.5524 38.6099 40.5684C38.5779 40.2004 38.4605 39.9311 38.2579 39.7604C38.0552 39.5897 37.7459 39.5044 37.3299 39.5044C36.9725 39.5044 36.6979 39.5631 36.5059 39.6804C36.3139 39.7977 36.2179 39.9631 36.2179 40.1764C36.2179 40.3257 36.2552 40.4511 36.3299 40.5524C36.4045 40.6484 36.5299 40.7337 36.7059 40.8084C36.8819 40.8777 37.1325 40.9497 37.4579 41.0244C38.0072 41.1471 38.4419 41.2857 38.7619 41.4404C39.0819 41.5897 39.3139 41.7737 39.4579 41.9924C39.6019 42.2057 39.6739 42.4697 39.6739 42.7844C39.6739 43.1097 39.5805 43.3951 39.3939 43.6404C39.2125 43.8804 38.9512 44.0671 38.6099 44.2004C38.2739 44.3284 37.8792 44.3924 37.4259 44.3924Z" fill="#A7A7A7"/>
<g clip-path="url(#clip0_2_1626)">
<path d="M27 19.453C28.1549 19.453 29.2626 19.9118 30.0793 20.7285C30.896 21.5452 31.3548 22.6529 31.3548 23.8079V29.0337H29.6129V23.8079C29.6129 23.1414 29.3583 22.5001 28.901 22.0152C28.4438 21.5303 27.8186 21.2384 27.1532 21.1993L27 21.195C26.3335 21.1949 25.6922 21.4496 25.2073 21.9068C24.7224 22.364 24.4305 22.9893 24.3914 23.6546L24.3871 23.8079V29.0337H22.6451V23.8079C22.6451 22.6529 23.1039 21.5452 23.9206 20.7285C24.7373 19.9118 25.845 19.453 27 19.453ZM21.3387 22.0659C21.5817 22.0659 21.8177 22.0947 22.0442 22.1478C21.8952 22.5911 21.8071 23.0526 21.782 23.5196L21.7742 23.8079V23.8828C21.674 23.8469 21.5699 23.8235 21.4641 23.8131L21.3387 23.8079C21.0139 23.8079 20.7008 23.9289 20.4604 24.1472C20.22 24.3656 20.0695 24.6656 20.0383 24.9889L20.0322 25.1143V29.0337H18.2903V25.1143C18.2903 24.3058 18.6115 23.5305 19.1831 22.9588C19.7548 22.3871 20.5302 22.0659 21.3387 22.0659ZM32.6613 22.0659C33.4697 22.0659 34.2451 22.3871 34.8168 22.9588C35.3885 23.5305 35.7096 24.3058 35.7096 25.1143V29.0337H33.9677V25.1143C33.9677 24.7895 33.8467 24.4764 33.6284 24.236C33.41 23.9956 33.1099 23.8451 32.7867 23.814L32.6613 23.8079C32.5088 23.8079 32.3625 23.834 32.2258 23.8819V23.8079C32.2258 23.2278 32.1317 22.6704 31.9566 22.1495C32.1822 22.0947 32.4183 22.0659 32.6613 22.0659ZM21.3387 16.8401C21.9162 16.8401 22.47 17.0695 22.8783 17.4779C23.2867 17.8862 23.5161 18.4401 23.5161 19.0175C23.5161 19.595 23.2867 20.1489 22.8783 20.5572C22.47 20.9656 21.9162 21.195 21.3387 21.195C20.7612 21.195 20.2073 20.9656 19.799 20.5572C19.3907 20.1489 19.1613 19.595 19.1613 19.0175C19.1613 18.4401 19.3907 17.8862 19.799 17.4779C20.2073 17.0695 20.7612 16.8401 21.3387 16.8401ZM32.6613 16.8401C33.2387 16.8401 33.7926 17.0695 34.2009 17.4779C34.6093 17.8862 34.8387 18.4401 34.8387 19.0175C34.8387 19.595 34.6093 20.1489 34.2009 20.5572C33.7926 20.9656 33.2387 21.195 32.6613 21.195C32.0838 21.195 31.5299 20.9656 31.1216 20.5572C30.7132 20.1489 30.4838 19.595 30.4838 19.0175C30.4838 18.4401 30.7132 17.8862 31.1216 17.4779C31.5299 17.0695 32.0838 16.8401 32.6613 16.8401ZM21.3387 18.5821C21.2232 18.5821 21.1124 18.6279 21.0307 18.7096C20.9491 18.7913 20.9032 18.902 20.9032 19.0175C20.9032 19.133 20.9491 19.2438 21.0307 19.3255C21.1124 19.4071 21.2232 19.453 21.3387 19.453C21.4542 19.453 21.5649 19.4071 21.6466 19.3255C21.7283 19.2438 21.7742 19.133 21.7742 19.0175C21.7742 18.902 21.7283 18.7913 21.6466 18.7096C21.5649 18.6279 21.4542 18.5821 21.3387 18.5821ZM32.6613 18.5821C32.5458 18.5821 32.435 18.6279 32.3533 18.7096C32.2716 18.7913 32.2258 18.902 32.2258 19.0175C32.2258 19.133 32.2716 19.2438 32.3533 19.3255C32.435 19.4071 32.5458 19.453 32.6613 19.453C32.7767 19.453 32.8875 19.4071 32.9692 19.3255C33.0509 19.2438 33.0967 19.133 33.0967 19.0175C33.0967 18.902 33.0509 18.7913 32.9692 18.7096C32.8875 18.6279 32.7767 18.5821 32.6613 18.5821ZM27 11.6143C27.9239 11.6143 28.8101 11.9814 29.4634 12.6347C30.1168 13.2881 30.4838 14.1742 30.4838 15.0982C30.4838 16.0222 30.1168 16.9083 29.4634 17.5617C28.8101 18.215 27.9239 18.5821 27 18.5821C26.076 18.5821 25.1898 18.215 24.5365 17.5617C23.8831 16.9083 23.5161 16.0222 23.5161 15.0982C23.5161 14.1742 23.8831 13.2881 24.5365 12.6347C25.1898 11.9814 26.076 11.6143 27 11.6143ZM27 13.3563C26.538 13.3563 26.0949 13.5398 25.7682 13.8665C25.4415 14.1931 25.258 14.6362 25.258 15.0982C25.258 15.5602 25.4415 16.0032 25.7682 16.3299C26.0949 16.6566 26.538 16.8401 27 16.8401C27.462 16.8401 27.905 16.6566 28.2317 16.3299C28.5584 16.0032 28.7419 15.5602 28.7419 15.0982C28.7419 14.6362 28.5584 14.1931 28.2317 13.8665C27.905 13.5398 27.462 13.3563 27 13.3563Z" fill="#A7A7A7"/>
</g>
<defs>
<clipPath id="clip0_2_1626">
<rect width="20.9032" height="20.9032" fill="white" transform="translate(16.5483 9.87238)"/>
</clipPath>
</defs>
</svg>
