<svg width="54" height="55" viewBox="0 0 54 55" fill="none" xmlns="http://www.w3.org/2000/svg">
<path d="M16.3001 39.2496C16.3001 38.9936 16.3908 38.7989 16.5721 38.6656C16.7535 38.5269 17.0201 38.4576 17.3721 38.4576V40.8416H19.7641V39.2496C19.7641 38.9883 19.8548 38.7909 20.0361 38.6576C20.2228 38.5243 20.4895 38.4576 20.8361 38.4576V43.4096C20.8361 43.6656 20.7428 43.8629 20.5561 44.0016C20.3748 44.1349 20.1108 44.2016 19.7641 44.2016V41.7696H17.3721V43.4096C17.3721 43.6656 17.2788 43.8629 17.0921 44.0016C16.9108 44.1349 16.6468 44.2016 16.3001 44.2016V39.2496ZM23.9847 44.2016C23.5474 44.2016 23.1474 44.1163 22.7847 43.9456C22.422 43.7696 22.134 43.5323 21.9207 43.2336C21.7127 42.9349 21.6087 42.6096 21.6087 42.2576V40.3936C21.6087 40.0416 21.7127 39.7189 21.9207 39.4256C22.134 39.1269 22.422 38.8923 22.7847 38.7216C23.1474 38.5456 23.5474 38.4576 23.9847 38.4576C24.422 38.4576 24.822 38.5456 25.1847 38.7216C25.5527 38.8923 25.8407 39.1269 26.0487 39.4256C26.262 39.7189 26.3687 40.0416 26.3687 40.3936V42.2576C26.3687 42.6096 26.262 42.9349 26.0487 43.2336C25.8407 43.5323 25.5527 43.7696 25.1847 43.9456C24.822 44.1163 24.422 44.2016 23.9847 44.2016ZM23.9847 43.2656C24.3847 43.2656 24.7047 43.1723 24.9447 42.9856C25.1847 42.7936 25.3047 42.5456 25.3047 42.2416V40.4176C25.3047 40.1083 25.1847 39.8603 24.9447 39.6736C24.7047 39.4816 24.3847 39.3856 23.9847 39.3856C23.59 39.3856 23.2727 39.4816 23.0327 39.6736C22.7927 39.8603 22.6727 40.1083 22.6727 40.4176V42.2416C22.6727 42.5456 22.7927 42.7936 23.0327 42.9856C23.2727 43.1723 23.59 43.2656 23.9847 43.2656ZM27.1439 39.2576C27.1439 39.0123 27.2399 38.8176 27.4319 38.6736C27.6239 38.5243 27.8852 38.4496 28.2159 38.4496L29.8959 42.6736L29.7119 43.1776L29.7919 43.2096L31.5919 38.4576C31.9172 38.4576 32.1759 38.5323 32.3679 38.6816C32.5652 38.8256 32.6639 39.0203 32.6639 39.2656V44.2016C31.9652 44.2016 31.6159 43.9403 31.6159 43.4176V40.8576L31.8879 40.1216L31.7999 40.0896L30.3359 43.9136C30.2986 43.9989 30.2399 44.0683 30.1599 44.1216C30.0852 44.1749 29.9999 44.2016 29.9039 44.2016C29.8079 44.2016 29.7199 44.1749 29.6399 44.1216C29.5652 44.0683 29.5092 43.9963 29.4719 43.9056L28.0079 40.0816L27.9199 40.1136L28.1839 40.8496V43.4176C28.1839 43.9403 27.8372 44.2016 27.1439 44.2016V39.2576ZM33.6048 39.0176C33.6048 38.8843 33.6555 38.7696 33.7568 38.6736C33.8635 38.5776 33.9915 38.5296 34.1408 38.5296H37.7088C37.7088 38.8496 37.6528 39.0843 37.5408 39.2336C37.4342 39.3776 37.2582 39.4496 37.0128 39.4496H34.6768V40.8416H36.8048C36.8048 41.1616 36.7488 41.3963 36.6368 41.5456C36.5302 41.6896 36.3542 41.7616 36.1088 41.7616H34.6768V43.2096H37.1808C37.4208 43.2096 37.5942 43.2843 37.7008 43.4336C37.8128 43.5776 37.8688 43.8096 37.8688 44.1296H34.1408C33.9915 44.1296 33.8635 44.0843 33.7568 43.9936C33.6555 43.8976 33.6048 43.7803 33.6048 43.6416V39.0176Z" fill="#A7A7A7"/>
<g clip-path="url(#clip0_2_1597)">
<path d="M33.0968 28.3539H20.9033C20.6723 28.3539 20.4508 28.2621 20.2874 28.0988C20.1241 27.9355 20.0323 27.7139 20.0323 27.4829V19.6442H17.4194L26.4139 11.4676C26.5743 11.3217 26.7833 11.2408 27.0001 11.2408C27.2169 11.2408 27.4259 11.3217 27.5862 11.4676L36.5807 19.6442H33.9678V27.4829C33.9678 27.7139 33.8761 27.9355 33.7127 28.0988C33.5494 28.2621 33.3278 28.3539 33.0968 28.3539ZM21.7743 26.612H32.2259V18.039L27.0001 13.2888L21.7743 18.039V26.612Z" fill="#A7A7A7"/>
<path d="M24.3871 21.684C23.7342 21.63 23.2318 21.0844 23.2318 20.4293C25.7397 20.6365 28.2604 20.6365 30.7684 20.4293C30.7684 21.0844 30.266 21.63 29.6131 21.684L29.4199 21.6999C27.8094 21.833 26.1907 21.833 24.5802 21.6999L24.3871 21.684Z" fill="#A7A7A7"/>
<path d="M27.7347 18.5519C27.7886 17.899 28.3343 17.3966 28.9894 17.3966L28.8659 18.8911C28.7409 20.4044 28.7409 21.9255 28.8659 23.4388L28.8939 23.778C28.9453 24.4 28.4543 24.9332 27.8301 24.9332L27.7187 23.5848C27.5857 21.9743 27.5857 20.3556 27.7187 18.7451L27.7347 18.5519Z" fill="#A7A7A7"/>
<path d="M26.2656 18.5519C26.2117 17.899 25.6661 17.3966 25.011 17.3966L25.1344 18.8911C25.2595 20.4044 25.2595 21.9255 25.1344 23.4388L25.1064 23.778C25.055 24.4 25.546 24.9332 26.1702 24.9332L26.2816 23.5848C26.4146 21.9743 26.4146 20.3556 26.2816 18.7451L26.2656 18.5519Z" fill="#A7A7A7"/>
</g>
<defs>
<clipPath id="clip0_2_1597">
<rect width="20.9032" height="20.9032" fill="white" transform="translate(16.5485 10.0636)"/>
</clipPath>
</defs>
</svg>
